<svg id="Layer_1" data-name="Layer 1" xmlns="http://www.w3.org/2000/svg" viewBox="0 0 472 82"><defs><style>.cls-1{fill:#1a2b63;}.cls-2{fill:#aec1ed;}.cls-3{fill:#ffd00d;}.cls-4{fill:#fe3745;}.cls-5{fill:#eef6ff;}.cls-6{fill:#52bbef;}.cls-7{fill:#f7de72;}.cls-8{fill:#020a21;}</style></defs><title>BannerArtboard 1</title><ellipse class="cls-1" cx="40.8" cy="41.1" rx="40.8" ry="40.9"/><path class="cls-2" d="M18.8,57.5a14.7,14.7,0,0,1,9.4,3.3A14,14,0,0,0,5.7,62l1.1,1.7A14.4,14.4,0,0,1,18.8,57.5Z"/><path class="cls-2" d="M64.2,55.7a14,14,0,0,0-13.8,12,11.4,11.4,0,0,1,9.5,9.6A40.6,40.6,0,0,0,75.9,62,14,14,0,0,0,64.2,55.7Z"/><path class="cls-2" d="M48.6,67.5a11.6,11.6,0,0,0-7.8,3.1,11.1,11.1,0,0,0-7.7-3.1,11.4,11.4,0,0,0-11.3,9.8,41,41,0,0,0,38.1,0A11.5,11.5,0,0,0,48.6,67.5Z"/><path class="cls-2" d="M35.4,68.9a11.3,11.3,0,0,1,4.5.9,11.6,11.6,0,0,0-6.8-2.3,11.4,11.4,0,0,0-11.3,9.8l2,1A11.9,11.9,0,0,1,35.4,68.9Z"/><path class="cls-3" d="M46.2,67.8,42.7,56.5l-10-3.1-9.1,7.9"/><path class="cls-4" d="M29.8,45.7a57.3,57.3,0,0,1,2.5-17.2c.5-1.4.9-2.7,1.4-4-4.5,1.1-8.7,5.2-10.4,11a17.3,17.3,0,0,0-.4,9,.5.5,0,0,0,.5.5"/><path class="cls-4" d="M55.1,54.7a.6.6,0,0,0,.7-.2,16.9,16.9,0,0,0,4.7-7.7c1.7-5.8.6-11.5-2.6-14.9-.3,1.3-.6,2.7-1,4a55.6,55.6,0,0,1-7.5,15.7"/><path class="cls-4" d="M32.9,48.7l-1.1,3.8a.7.7,0,0,0,.5,1l10.6,3.3a.9.9,0,0,0,1.1-.6l1.1-3.8Z"/><path class="cls-5" d="M59.6,17.8,40.2,11.9a56.2,56.2,0,0,0-8,16.5,57.3,57.3,0,0,0-2.5,18.9.7.7,0,0,0,.5.7l17.6,5.4a.8.8,0,0,0,.8-.3A56.8,56.8,0,0,0,57,36,58.1,58.1,0,0,0,59.6,17.8Z"/><path class="cls-4" d="M54.4,0h-.5C49.4,2,45.1,5.6,41.2,10.5l-1.1,1.6L59.6,18c0-.7-.1-1.3-.1-2A33.4,33.4,0,0,0,54.8.3Z"/><ellipse class="cls-6" cx="45.3" cy="29.8" rx="5.6" ry="5.5" transform="translate(3.7 64.5) rotate(-73.1)"/><polyline class="cls-7" points="29.2 62.2 39.6 62.6 52.7 61.8"/><path class="cls-2" d="M31.1,67.7h2a11.4,11.4,0,0,1,7.6,3h.2a11.4,11.4,0,0,1,7.7-3h2a13.7,13.7,0,0,1,2.2-5.8,9.2,9.2,0,0,0-6.3-2.5,9,9,0,0,0-6.9,3.2,6.3,6.3,0,0,0-5.3-3,5.8,5.8,0,0,0-1.9.3l-1.2.5a8.1,8.1,0,0,0-2.1,1.9C30.2,65.4,31.1,67.6,31.1,67.7Z"/><path class="cls-2" d="M31.3,67.7A14,14,0,0,0,5.7,62,40.8,40.8,0,0,0,21.8,77.3,11.2,11.2,0,0,1,31.3,67.7Z"/><path class="cls-8" d="M109.3,38.6a2.6,2.6,0,0,0-.9-2.1,13.1,13.1,0,0,0-3.3-1.5A23.6,23.6,0,0,1,98,31.7a6,6,0,0,1-2.3-5,6.1,6.1,0,0,1,2.7-5.2,10.8,10.8,0,0,1,6.8-2,11.7,11.7,0,0,1,7.1,2,6.8,6.8,0,0,1,2.6,5.8h-5.8a3.3,3.3,0,0,0-1-2.6,4.5,4.5,0,0,0-3-.8,3.7,3.7,0,0,0-2.5.7,2.8,2.8,0,0,0-1,2,2.4,2.4,0,0,0,1,1.8,20.8,20.8,0,0,0,3.6,1.7,19,19,0,0,1,6.7,3.2,6.5,6.5,0,0,1,2.3,5.2,6.3,6.3,0,0,1-2.6,5.3,11.6,11.6,0,0,1-7,1.9,13.4,13.4,0,0,1-7.4-2,7.1,7.1,0,0,1-2.9-6.5h5.8a4.1,4.1,0,0,0,1.1,3.2,5.3,5.3,0,0,0,3.4.9,4.1,4.1,0,0,0,2.7-.7A2.6,2.6,0,0,0,109.3,38.6Z"/><path class="cls-8" d="M135.7,36.3a11.8,11.8,0,0,1-1.9,6.9,6.5,6.5,0,0,1-5.5,2.6,6,6,0,0,1-2.4-.5,5.8,5.8,0,0,1-1.9-1.6v9h-5.9V26.4h5.6l.2,2.1a4.7,4.7,0,0,1,1.9-1.8,4.9,4.9,0,0,1,2.5-.6,6.2,6.2,0,0,1,5.4,2.7,12,12,0,0,1,2,7.2Zm-5.9-.3a10.5,10.5,0,0,0-.7-3.9,2.5,2.5,0,0,0-2.3-1.5,4.3,4.3,0,0,0-1.7.4,2.9,2.9,0,0,0-1.1,1.1V40a3.1,3.1,0,0,0,1.1.9,4.7,4.7,0,0,0,1.7.3,2.4,2.4,0,0,0,2.3-1.3,8.2,8.2,0,0,0,.7-3.6Z"/><path class="cls-8" d="M149.3,45.4l-.6-1.3a9,9,0,0,1-.3-1.6,9.6,9.6,0,0,1-1.9,2.4,4.9,4.9,0,0,1-3,.9,7,7,0,0,1-4.7-1.5,5.7,5.7,0,0,1-1.6-4.2,5.1,5.1,0,0,1,2.1-4.4c1.4-1,3.6-1.5,6.5-1.5h2.4V32.8a2.9,2.9,0,0,0-.6-1.9,2.8,2.8,0,0,0-3.3-.1,2.1,2.1,0,0,0-.5,1.5H138a5.1,5.1,0,0,1,2.2-4.4,9.3,9.3,0,0,1,6-1.7,8.9,8.9,0,0,1,5.8,1.7,6.3,6.3,0,0,1,2.1,5V40a12,12,0,0,0,.3,2.8,11.2,11.2,0,0,0,.8,2.6Zm-4.2-3.8a3.8,3.8,0,0,0,1.9-.5,2.9,2.9,0,0,0,1.2-1.3V37.3h-2.4a2.8,2.8,0,0,0-2,.7,2.4,2.4,0,0,0-.7,1.8,1.8,1.8,0,0,0,.6,1.3A2,2,0,0,0,145.1,41.6Z"/><path class="cls-8" d="M165.5,41.2a2.3,2.3,0,0,0,1.8-.6,2.9,2.9,0,0,0,.6-1.9h5.5a6.3,6.3,0,0,1-2.2,5,9.3,9.3,0,0,1-12.3-.7,10.1,10.1,0,0,1-2.4-7v-.4a10.3,10.3,0,0,1,2.3-6.9,8.5,8.5,0,0,1,6.7-2.7,8,8,0,0,1,5.8,2,7.2,7.2,0,0,1,2.1,5.5h-5.5a3.8,3.8,0,0,0-.6-2.2,2,2,0,0,0-1.8-.9,2.6,2.6,0,0,0-2.4,1.4,9.4,9.4,0,0,0-.7,3.7v.4a9.5,9.5,0,0,0,.7,3.8A2.5,2.5,0,0,0,165.5,41.2Z"/><path class="cls-8" d="M184.3,45.8a9,9,0,0,1-6.8-2.6,9.2,9.2,0,0,1-2.5-6.6v-.7a10.8,10.8,0,0,1,2.3-7.1,8.1,8.1,0,0,1,6.7-2.7c2.6,0,4.6.7,6,2.3a8.9,8.9,0,0,1,2.1,6.3v3.1H181.2a3.4,3.4,0,0,0,1.1,2.4,3.9,3.9,0,0,0,2.8.9,14.5,14.5,0,0,0,5.4-1.1l1.4,3.6a10.2,10.2,0,0,1-3.3,1.5A15.4,15.4,0,0,1,184.3,45.8ZM184,30.6a2.6,2.6,0,0,0-2.1.9,5.7,5.7,0,0,0-.8,2.5h5.2v-.5a4.2,4.2,0,0,0-.5-2.2A1.9,1.9,0,0,0,184,30.6Z"/><path class="cls-8" d="M203.9,45.4V19.8h8.4a13.4,13.4,0,0,1,7.5,1.8,6,6,0,0,1,2.6,5.3,6.6,6.6,0,0,1-.8,3.2,4.8,4.8,0,0,1-2.7,2.1,5.5,5.5,0,0,1,4.5,5.7,6.5,6.5,0,0,1-2.5,5.6c-1.7,1.3-4.1,1.9-7.2,1.9Zm6-14.9h2.3a5.4,5.4,0,0,0,3.2-.7,2.7,2.7,0,0,0,1.1-2.3,2.8,2.8,0,0,0-1-2.3,5.6,5.6,0,0,0-3.2-.8h-2.4Zm0,3.9v6.5h3.8a4.8,4.8,0,0,0,2.9-.8,2.7,2.7,0,0,0,.9-2.3,3.7,3.7,0,0,0-.8-2.5,4.9,4.9,0,0,0-2.8-.9h-4Z"/><path class="cls-8" d="M237.5,45.4a5,5,0,0,1-.5-1.3,9.4,9.4,0,0,1-.4-1.6,6.5,6.5,0,0,1-1.9,2.4,4.7,4.7,0,0,1-3,.9,6.5,6.5,0,0,1-4.6-1.5,5.7,5.7,0,0,1-1.7-4.2,5,5,0,0,1,2.2-4.4c1.4-1,3.5-1.5,6.4-1.5h2.4V32.8a2.9,2.9,0,0,0-.5-1.9,2.4,2.4,0,0,0-1.8-.6,2.1,2.1,0,0,0-1.5.5,1.7,1.7,0,0,0-.5,1.5h-5.8a5,5,0,0,1,2.1-4.4,9.8,9.8,0,0,1,6.1-1.7,8.8,8.8,0,0,1,5.7,1.7,6.1,6.1,0,0,1,2.2,5V40a23,23,0,0,0,.2,2.8,19.8,19.8,0,0,0,.8,2.6Zm-4.1-3.8a4.1,4.1,0,0,0,1.9-.5,3.3,3.3,0,0,0,1.1-1.3V37.3h-2.3a2.9,2.9,0,0,0-2.1.7,2.8,2.8,0,0,0-.6,1.8,2.1,2.1,0,0,0,.5,1.3A2.5,2.5,0,0,0,233.4,41.6Z"/><path class="cls-8" d="M256.2,31.5h-2a3.5,3.5,0,0,0-1.6.3,2.1,2.1,0,0,0-1,1.1V45.4h-6v-19h5.6l.2,2.8a5.9,5.9,0,0,1,1.6-2.3,3.2,3.2,0,0,1,2.3-.8h.7l.7.2Z"/><path class="cls-8" d="M96,61.7v3.7h-.8V56.2h3.1l1.4.2a1.5,1.5,0,0,1,.9.6,1.6,1.6,0,0,1,.6.8,2.3,2.3,0,0,1,.2,1.2,2,2,0,0,1-.2,1.1,2.4,2.4,0,0,1-.6.9,1.9,1.9,0,0,1-.9.5l-1.4.2Zm0-.7h3.4l.7-.5a2.1,2.1,0,0,0,.4-.6,2.4,2.4,0,0,0,.2-.8,1.9,1.9,0,0,0-.2-.8,1.6,1.6,0,0,0-.4-.7,1.8,1.8,0,0,0-.7-.5H96Z"/><path class="cls-8" d="M103.8,59.7l.4-.5a1,1,0,0,1,.5-.4l.6-.3h.7l.9.2.7.4a2,2,0,0,1,.4.8,3.7,3.7,0,0,1,.2,1.2v4.4h-.8V61a2.2,2.2,0,0,0-.1-.9,1.6,1.6,0,0,0-.3-.6l-.5-.3h-1.4l-.6.4-.4.5a.9.9,0,0,0-.3.6v4.7H103V55.7h.8Z"/><path class="cls-8" d="M112.3,64.3l2-5.7h.8l-2.9,7.9a1.4,1.4,0,0,1-.2.6l-.3.5-.6.4-.8.2h-.6v-.6h1l.4-.2.3-.4c.1-.1.1-.3.2-.5l.3-.9-2.5-6.8h.8Z"/><path class="cls-8" d="M120.4,63.7v-.4l-.3-.4a.9.9,0,0,0-.6-.4l-.9-.3-1-.2-.8-.4a2.1,2.1,0,0,1-.4-.6,1.4,1.4,0,0,1-.2-.7,1.9,1.9,0,0,1,.2-.7,2.1,2.1,0,0,1,.4-.6l.8-.4,1-.2,1.1.2a2,2,0,0,1,.8.4,1.8,1.8,0,0,1,.5.7,1.9,1.9,0,0,1,.2.8h-.8a.7.7,0,0,0-.1-.5,1,1,0,0,0-.4-.5l-.5-.3h-1.5l-.6.3a.5.5,0,0,0-.2.4c-.1.1-.1.2-.1.4v.4l.3.3a.6.6,0,0,0,.6.3l.9.3,1.1.3.7.5a1.2,1.2,0,0,1,.5.5c0,.2.1.5.1.7a1.9,1.9,0,0,1-.2.8,1,1,0,0,1-.5.6l-.8.4-1,.2-1.2-.2-.8-.5-.6-.6a2.2,2.2,0,0,1-.1-.8h.7a1.4,1.4,0,0,0,.2.7l.5.4.6.2h1.4c.2-.1.4-.1.6-.3l.3-.4A.6.6,0,0,0,120.4,63.7Z"/><path class="cls-8" d="M122.9,56.6c0-.2,0-.3.1-.4h.8c.1.1.1.2.1.4a.4.4,0,0,1-.1.3l-.4.2a.5.5,0,0,1-.4-.2A.4.4,0,0,1,122.9,56.6Zm.9,8.8H123V58.6h.8Z"/><path class="cls-8" d="M128.4,64.9h.6l.6-.3a1.2,1.2,0,0,0,.5-.5,6.4,6.4,0,0,0,.2-.7h.7a2.9,2.9,0,0,1-.2.9l-.6.7a2.6,2.6,0,0,1-.9.5l-.9.2a2.5,2.5,0,0,1-1.3-.3,2.2,2.2,0,0,1-.9-.7,2.4,2.4,0,0,1-.6-1.1,5.9,5.9,0,0,1-.2-1.4v-.2a5.9,5.9,0,0,1,.2-1.4,2.4,2.4,0,0,1,.6-1.1,2.2,2.2,0,0,1,.9-.7,2.4,2.4,0,0,1,1.2-.3l1.1.2.8.5.6.8a3,3,0,0,1,.2,1h-.7c-.1-.3-.1-.5-.2-.8l-.4-.5-.6-.4h-.8l-1,.2-.6.6a3.6,3.6,0,0,0-.4.9,4.1,4.1,0,0,0-.1,1.1v.2a3.7,3.7,0,0,0,.1,1.1,3.6,3.6,0,0,0,.4.9c.1.2.4.4.6.6Z"/><path class="cls-8" d="M136.8,65.4a.8.8,0,0,0-.1-.4v-.5l-.4.4-.5.3-.7.3h-.7l-.9-.2-.7-.4-.5-.6a2.2,2.2,0,0,1-.1-.8,1.5,1.5,0,0,1,.2-.9,1.3,1.3,0,0,1,.6-.7l1-.4,1.3-.2h1.4v-.7a1.7,1.7,0,0,0-.5-1.2,1.7,1.7,0,0,0-1.3-.4h-.7l-.6.3-.4.4a1.3,1.3,0,0,0-.1.6h-.8a1.9,1.9,0,0,1,.2-.8l.5-.6.9-.5,1.1-.2,1,.2.8.4.5.7a3,3,0,0,1,.2,1v4c0,.2,0,.3.1.4a.4.4,0,0,0,.1.3h-.9Zm-2.3-.5h.7l.7-.3.5-.4.3-.6V62h-2.4l-.7.3c-.2.2-.4.3-.5.5a1.4,1.4,0,0,0-.2.6c0,.2.1.4.1.6l.3.4.5.3Z"/><path class="cls-8" d="M140.3,65.4h-.7V55.7h.7Z"/><path class="cls-8" d="M152.6,65.4h-.8l-5.3-7.9v7.9h-.8V56.2h.8l5.3,7.9V56.2h.8Z"/><path class="cls-8" d="M154.4,61.9a3.2,3.2,0,0,1,.2-1.4,2.4,2.4,0,0,1,.6-1.1l1-.7a2.4,2.4,0,0,1,1.2-.3,2.8,2.8,0,0,1,1.3.3l1,.7.6,1.1a5.9,5.9,0,0,1,.2,1.4v.2a5.9,5.9,0,0,1-.2,1.4l-.6,1.1-1,.7a2.8,2.8,0,0,1-1.3.3,2.4,2.4,0,0,1-1.2-.3l-1-.7a2.4,2.4,0,0,1-.6-1.1,3.2,3.2,0,0,1-.2-1.4Zm.7.2a4.3,4.3,0,0,0,.2,1.1,3.6,3.6,0,0,0,.4.9l.7.6,1,.2,1-.2.7-.6a4.1,4.1,0,0,0,.5-.9,4.1,4.1,0,0,0,.1-1.1v-.2a4.1,4.1,0,0,0-.1-1.1,4.1,4.1,0,0,0-.5-.9l-.7-.6-1-.2-1,.2-.7.6a3.6,3.6,0,0,0-.4.9,4.3,4.3,0,0,0-.2,1.1Z"/><path class="cls-8" d="M163.2,56.8v1.8h1.5v.6h-1.5v4.6a4.3,4.3,0,0,0,.1.5l.2.4.3.2h1v.7h-1.4l-.5-.3a3.3,3.3,0,0,1-.3-.6,1.9,1.9,0,0,1-.1-.8V59.2h-1.3v-.6h1.3V56.8Z"/><path class="cls-8" d="M166.2,56.6c0-.2,0-.3.1-.4h.8c.1.1.1.2.1.4a.4.4,0,0,1-.1.3.5.5,0,0,1-.4.2l-.4-.2A.4.4,0,0,1,166.2,56.6Zm.9,8.8h-.8V58.6h.8Z"/><path class="cls-8" d="M169.6,65.4V59.2h-1.1v-.6h1.1v-.8a2.4,2.4,0,0,1,.2-.9,2,2,0,0,1,.4-.8l.7-.4,1-.2a5.3,5.3,0,0,1,1.7.4v.7l-.7-.3h-.9a1.4,1.4,0,0,0-1.5,1.6v.8H172v.6h-1.6v6.2Zm4.5,0h-.8V58.6h.8Z"/><path class="cls-8" d="M178.7,64.9h.7l.6-.3.4-.5a1.4,1.4,0,0,0,.2-.7h.7a2.9,2.9,0,0,1-.2.9l-.6.7-.8.5-1,.2a2.8,2.8,0,0,1-1.3-.3,2.2,2.2,0,0,1-.9-.7,3.9,3.9,0,0,1-.6-1.1,5.9,5.9,0,0,1-.2-1.4v-.2a5.9,5.9,0,0,1,.2-1.4,3.9,3.9,0,0,1,.6-1.1,2.2,2.2,0,0,1,.9-.7,2.8,2.8,0,0,1,1.3-.3l1,.2.8.5a2.4,2.4,0,0,1,.6.8,3,3,0,0,1,.2,1h-.7a2.4,2.4,0,0,0-.2-.8,1,1,0,0,0-.4-.5l-.6-.4h-.7l-1,.2-.7.6a3.6,3.6,0,0,0-.4.9,4.1,4.1,0,0,0-.1,1.1v.2a3.7,3.7,0,0,0,.1,1.1,3.6,3.6,0,0,0,.4.9l.7.6Z"/><path class="cls-8" d="M187.2,65.4c-.1-.1-.1-.2-.1-.4a.9.9,0,0,1-.1-.5c-.1.1-.2.3-.4.4l-.5.3-.7.3h-.7l-.9-.2-.7-.4-.5-.6a2.2,2.2,0,0,1-.1-.8,1.5,1.5,0,0,1,.2-.9,1.3,1.3,0,0,1,.6-.7l1-.4,1.3-.2H187v-.7a1.6,1.6,0,0,0-.4-1.2,2,2,0,0,0-1.4-.4h-.7l-.6.3-.4.4a1.3,1.3,0,0,0-.1.6h-.8a1.9,1.9,0,0,1,.2-.8,3.4,3.4,0,0,1,.6-.6l.8-.5,1.1-.2,1,.2.8.4a1.8,1.8,0,0,1,.5.7,3,3,0,0,1,.2,1v4c0,.2.1.3.1.4a.4.4,0,0,0,.1.3h-.8Zm-2.4-.5h.7l.7-.3.5-.4.3-.6V62h-2.3l-.8.3c-.2.2-.4.3-.5.5a1.4,1.4,0,0,0-.2.6c0,.2.1.4.1.6s.2.3.4.4l.4.3Z"/><path class="cls-8" d="M191,56.8v1.8h1.4v.6H191v5.1c.1.2.2.3.2.4l.3.2h1v.7h-1.4l-.5-.3a3.3,3.3,0,0,1-.3-.6,1.9,1.9,0,0,1-.1-.8V59.2h-1.3v-.6h1.3V56.8Z"/><path class="cls-8" d="M193.9,56.6a.5.5,0,0,1,.2-.4h.7a.5.5,0,0,1,.2.4c0,.1-.1.2-.2.3l-.4.2-.3-.2C194,56.8,193.9,56.7,193.9,56.6Zm.9,8.8h-.7V58.6h.7Z"/><path class="cls-8" d="M196.5,61.9a3.2,3.2,0,0,1,.2-1.4,2.4,2.4,0,0,1,.6-1.1l1-.7a2.4,2.4,0,0,1,1.2-.3,2.8,2.8,0,0,1,1.3.3l1,.7.6,1.1a5.9,5.9,0,0,1,.2,1.4v.2a5.9,5.9,0,0,1-.2,1.4l-.6,1.1-1,.7a2.8,2.8,0,0,1-1.3.3,2.4,2.4,0,0,1-1.2-.3l-1-.7a2.4,2.4,0,0,1-.6-1.1,3.2,3.2,0,0,1-.2-1.4Zm.7.2a4.3,4.3,0,0,0,.2,1.1,3.6,3.6,0,0,0,.4.9l.7.6,1,.2,1-.2.7-.6a4.1,4.1,0,0,0,.5-.9,4.1,4.1,0,0,0,.1-1.1v-.2a4.1,4.1,0,0,0-.1-1.1,4.1,4.1,0,0,0-.5-.9l-.7-.6-1-.2-1,.2-.7.6a3.6,3.6,0,0,0-.4.9,4.3,4.3,0,0,0-.2,1.1Z"/><path class="cls-8" d="M204.9,58.6v1.1l.4-.5.5-.4.7-.3h.7l.9.2.7.4a2,2,0,0,1,.4.8,4.1,4.1,0,0,1,.1,1.2v4.4h-.7V61a2.2,2.2,0,0,0-.1-.9,1.6,1.6,0,0,0-.3-.6l-.6-.3h-1.4l-.6.4-.4.5-.3.6v4.7h-.7V58.6Z"/><path class="cls-8" d="M215.4,63.7c0-.2,0-.3-.1-.4a.5.5,0,0,0-.2-.4,1.3,1.3,0,0,0-.6-.4l-.9-.3-1-.2-.8-.4-.5-.6a1.5,1.5,0,0,1-.1-.7,1,1,0,0,1,.2-.7,2.1,2.1,0,0,1,.4-.6,2,2,0,0,1,.8-.4l1-.2,1.1.2a2,2,0,0,1,.8.4,1.8,1.8,0,0,1,.5.7,1.9,1.9,0,0,1,.1.8h-.7a4.3,4.3,0,0,0-.1-.5,1,1,0,0,0-.4-.5l-.5-.3h-1.6l-.5.3-.3.4c0,.1-.1.2-.1.4s.1.3.1.4l.3.3a.5.5,0,0,0,.5.3l1,.3,1.1.3.7.5a1,1,0,0,1,.4.5,1.9,1.9,0,0,1,.2.7,1.9,1.9,0,0,1-.2.8,1,1,0,0,1-.5.6,2,2,0,0,1-.8.4l-1.1.2-1.1-.2-.9-.5-.5-.6a2.2,2.2,0,0,1-.1-.8h.7a1.4,1.4,0,0,0,.2.7,1,1,0,0,0,.5.4l.6.2h1.4c.2-.1.4-.1.6-.3l.3-.4A.6.6,0,0,0,215.4,63.7Z"/><path class="cls-8" d="M221.6,65.4V59.2h-1.1v-.6h1.1v-.9a2.8,2.8,0,0,1,.1-.9,4.3,4.3,0,0,1,.4-.7l.7-.4.8-.2h.8v.6h-.7a1.2,1.2,0,0,0-1,.4,1.8,1.8,0,0,0-.3,1.1v.9H224v.6h-1.6v6.2Z"/><path class="cls-8" d="M224.9,61.9a3.2,3.2,0,0,1,.3-1.4,2.4,2.4,0,0,1,.6-1.1,3.1,3.1,0,0,1,.9-.7,3,3,0,0,1,2.6,0,3.1,3.1,0,0,1,.9.7,2.4,2.4,0,0,1,.6,1.1,3.2,3.2,0,0,1,.3,1.4v.2a3.2,3.2,0,0,1-.3,1.4,2.4,2.4,0,0,1-.6,1.1,3.1,3.1,0,0,1-.9.7,3,3,0,0,1-2.6,0,3.1,3.1,0,0,1-.9-.7,2.4,2.4,0,0,1-.6-1.1,3.2,3.2,0,0,1-.3-1.4Zm.8.2a4.1,4.1,0,0,0,.1,1.1,4.1,4.1,0,0,0,.5.9l.7.6,1,.2,1-.2.7-.6a4.1,4.1,0,0,0,.5-.9,4.1,4.1,0,0,0,.1-1.1v-.2a4.1,4.1,0,0,0-.1-1.1,4.1,4.1,0,0,0-.5-.9l-.7-.6-1-.2-1,.2-.7.6a4.1,4.1,0,0,0-.5.9,4.1,4.1,0,0,0-.1,1.1Z"/><path class="cls-8" d="M235.8,59.2h-1.2l-.6.3-.4.5c-.1.2-.1.4-.2.6v4.7h-.8V58.6h.8v1.1a2.2,2.2,0,0,1,.7-.9,1.9,1.9,0,0,1,1.2-.4h.5Z"/><path class="cls-8" d="M245.6,63.2c0-.3-.1-.5-.1-.7l-.5-.6-.7-.4-1.3-.4-1.2-.4-1-.6-.6-.7a3,3,0,0,1-.2-1,1.6,1.6,0,0,1,.3-.9,1.6,1.6,0,0,1,.6-.8l1-.5h1.2a2.5,2.5,0,0,1,1.3.2,1.7,1.7,0,0,1,1,.6,2.7,2.7,0,0,1,.7.8,4.3,4.3,0,0,1,.2,1.1h-.8a1.9,1.9,0,0,0-.1-.8,1.8,1.8,0,0,0-.5-.7l-.8-.4-1-.2-1,.2-.7.3a2.1,2.1,0,0,0-.4.6,1.4,1.4,0,0,0-.2.6,3.5,3.5,0,0,0,.1.6l.5.6.7.4,1.2.4,1.3.4,1,.6.6.8a2.4,2.4,0,0,1,.2.9,2,2,0,0,1-.3,1.1c-.1.3-.4.5-.6.7l-1,.5-1.3.2h-.8l-.8-.2-.8-.4a1.2,1.2,0,0,1-.5-.5,2.5,2.5,0,0,1-.4-.7,2.9,2.9,0,0,1-.2-.9h.8a1.7,1.7,0,0,0,.3,1,1.2,1.2,0,0,0,.6.6l.8.4h2l.7-.4a1.2,1.2,0,0,0,.5-.5A1.9,1.9,0,0,0,245.6,63.2Z"/><path class="cls-8" d="M253.4,62.1a5.9,5.9,0,0,1-.2,1.4,3.7,3.7,0,0,1-.5,1.1,2.7,2.7,0,0,1-.8.7,2,2,0,0,1-1.1.3,2.8,2.8,0,0,1-1.3-.3,2.2,2.2,0,0,1-.9-.7v3.5h-.7V58.6h.7v.9a2.4,2.4,0,0,1,.9-.8,2.5,2.5,0,0,1,1.3-.3,2.3,2.3,0,0,1,1.1.3,1.8,1.8,0,0,1,.8.7,3.7,3.7,0,0,1,.5,1.1,5.9,5.9,0,0,1,.2,1.4Zm-.8-.2a4.1,4.1,0,0,0-.1-1.1,3.6,3.6,0,0,0-.4-.9,1.7,1.7,0,0,0-.6-.6l-.9-.2h-.7l-.6.3c-.2.1-.3.3-.4.4l-.3.5v3.3l.3.5.4.4.6.2h.7l.9-.2a.9.9,0,0,0,.6-.6,3.6,3.6,0,0,0,.4-.9,4.1,4.1,0,0,0,.1-1.1Z"/><path class="cls-8" d="M259.4,65.4c0-.1-.1-.2-.1-.4v-.5l-.4.4-.6.3-.6.3h-.8l-.9-.2-.7-.4a2.1,2.1,0,0,1-.4-.6,2.4,2.4,0,0,1-.2-.8,2.9,2.9,0,0,1,.2-.9,2.3,2.3,0,0,1,.7-.7,2.5,2.5,0,0,1,.9-.4l1.3-.2h1.5v-.7a1.7,1.7,0,0,0-.5-1.2,1.7,1.7,0,0,0-1.3-.4h-.8l-.5.3c-.2.1-.3.3-.4.4a1.4,1.4,0,0,0-.2.6h-.7a1.1,1.1,0,0,1,.2-.8l.5-.6.8-.5,1.1-.2,1,.2a2,2,0,0,1,.8.4,1.8,1.8,0,0,1,.5.7,3,3,0,0,1,.2,1v3.7a.4.4,0,0,0,.1.3v.4a.4.4,0,0,1,.1.3h-.8Zm-2.4-.5h.8l.6-.3.5-.4a2.1,2.1,0,0,0,.4-.6V62h-2.4l-.8.3-.5.5a1.9,1.9,0,0,0,0,1.2l.3.4.5.3Z"/><path class="cls-8" d="M264.6,64.9h.7l.6-.3.4-.5a1.4,1.4,0,0,0,.2-.7h.7a2.9,2.9,0,0,1-.2.9l-.6.7-.8.5-1,.2a2.8,2.8,0,0,1-1.3-.3,2.2,2.2,0,0,1-.9-.7,3.9,3.9,0,0,1-.6-1.1,5.9,5.9,0,0,1-.2-1.4v-.2a5.9,5.9,0,0,1,.2-1.4,3.9,3.9,0,0,1,.6-1.1,2.2,2.2,0,0,1,.9-.7,2.8,2.8,0,0,1,1.3-.3l1,.2.8.5a2.4,2.4,0,0,1,.6.8,3,3,0,0,1,.2,1h-.7a2.4,2.4,0,0,0-.2-.8,1,1,0,0,0-.4-.5l-.6-.4h-.7l-1,.2-.7.6a3.6,3.6,0,0,0-.4.9,4.1,4.1,0,0,0-.1,1.1v.2a3.7,3.7,0,0,0,.1,1.1,3.6,3.6,0,0,0,.4.9l.7.6Z"/><path class="cls-8" d="M271.4,65.6a2.1,2.1,0,0,1-1.2-.3l-1-.7a3,3,0,0,1-.7-1.1,5.1,5.1,0,0,1-.2-1.3v-.3a3.2,3.2,0,0,1,.3-1.4,2.4,2.4,0,0,1,.6-1.1,2.8,2.8,0,0,1,.9-.7,2.7,2.7,0,0,1,1.2-.3,2,2,0,0,1,1.1.3,1.8,1.8,0,0,1,.9.6,3.1,3.1,0,0,1,.5,1,5.1,5.1,0,0,1,.2,1.3V62h-4.9v.2a4.1,4.1,0,0,0,.1,1.1,5.6,5.6,0,0,0,.5.8,1.6,1.6,0,0,0,.8.6l.9.2,1.1-.2a2.7,2.7,0,0,0,.8-.7l.5.3a2.9,2.9,0,0,1-.9.9l-.7.3Zm-.1-6.5h-.8l-.7.5a5.6,5.6,0,0,0-.5.8,2.4,2.4,0,0,0-.2.9h4.1a2.2,2.2,0,0,0-.1-.8,1.6,1.6,0,0,0-.4-.7l-.6-.5A1.1,1.1,0,0,0,271.3,59.1Z"/><path class="cls-8" d="M283.9,61h-4.3v3.8h4.9v.6h-5.7V56.2h5.7v.7h-4.9v3.4h4.3Z"/><path class="cls-8" d="M288,64.4l2.1-5.8h.7l-2.5,6.8h-.6l-2.6-6.8h.8Z"/><path class="cls-8" d="M294.7,65.6a2.8,2.8,0,0,1-1.3-.3,3.1,3.1,0,0,1-.9-.7,3,3,0,0,1-.7-1.1,5.1,5.1,0,0,1-.2-1.3v-.3a5.9,5.9,0,0,1,.2-1.4,4.1,4.1,0,0,1,.7-1.1,2,2,0,0,1,.9-.7,2.3,2.3,0,0,1,1.1-.3,2.1,2.1,0,0,1,1.2.3,1.6,1.6,0,0,1,.8.6,2.1,2.1,0,0,1,.6,1,5.3,5.3,0,0,1,.1,1.3V62h-4.9v.2a4.3,4.3,0,0,0,.2,1.1,2.2,2.2,0,0,0,.5.8,1.9,1.9,0,0,0,.7.6l1,.2,1.1-.2a2.7,2.7,0,0,0,.8-.7l.5.3a2.9,2.9,0,0,1-.9.9l-.7.3Zm-.2-6.5h-.8l-.6.5a2.2,2.2,0,0,0-.5.8,2.4,2.4,0,0,0-.2.9h4.1c0-.3-.1-.5-.1-.8a4.3,4.3,0,0,0-.4-.7l-.6-.5A1.3,1.3,0,0,0,294.5,59.1Z"/><path class="cls-8" d="M299.4,58.6v1.1l.4-.5a1,1,0,0,1,.5-.4l.6-.3h.7l.9.2.7.4a2.2,2.2,0,0,1,.5.8,4.1,4.1,0,0,1,.1,1.2v4.4h-.8V61a2.2,2.2,0,0,0-.1-.9.6.6,0,0,0-.3-.6l-.5-.3h-1.4l-.6.4-.4.5-.3.6v4.7h-.8V58.6Z"/><path class="cls-8" d="M307,56.8v1.8h1.5v.6H307v4.6a4.3,4.3,0,0,0,.1.5c.1.2.1.3.2.4l.3.2h1v.7h-1.4l-.5-.3-.3-.6a1.9,1.9,0,0,1-.1-.8V59.2H305v-.6h1.3V56.8Z"/><path class="cls-8" d="M314.2,63.7c0-.2-.1-.3-.1-.4l-.3-.4a1,1,0,0,0-.5-.4l-1-.3-1-.2-.8-.4a2.1,2.1,0,0,1-.4-.6,1.4,1.4,0,0,1-.2-.7,1.9,1.9,0,0,1,.2-.7l.5-.6.7-.4,1-.2,1.1.2a2,2,0,0,1,.8.4,1.8,1.8,0,0,1,.5.7,1.9,1.9,0,0,1,.2.8h-.8a.7.7,0,0,0-.1-.5l-.3-.5-.6-.3h-1.5l-.5.3c-.2.1-.3.2-.3.4s-.1.2-.1.4a.6.6,0,0,0,.1.4l.2.3a.7.7,0,0,0,.6.3l.9.3,1.1.3.7.5.5.5a1.7,1.7,0,0,1,.1.7,1.1,1.1,0,0,1-.2.8c-.1.3-.2.5-.5.6a2,2,0,0,1-.8.4l-1,.2-1.2-.2-.8-.5-.5-.6a2.4,2.4,0,0,1-.2-.8h.8a.8.8,0,0,0,.2.7.8.8,0,0,0,.4.4l.6.2h1.4c.3-.1.5-.1.6-.3s.3-.2.3-.4A.8.8,0,0,0,314.2,63.7Z"/></svg>